<?xml version="1.0" encoding="utf-8"?>
<!-- Generator: Adobe Illustrator 28.0.0, SVG Export Plug-In . SVG Version: 6.00 Build 0)  -->
<svg version="1.1" id="Слой_2" xmlns="http://www.w3.org/2000/svg" xmlns:xlink="http://www.w3.org/1999/xlink" x="0px" y="0px"
	 viewBox="0 0 1920 1080" style="enable-background:new 0 0 1920 1080;" xml:space="preserve">
<style type="text/css">
	.st0{fill:#EFBC97;stroke:#543F1D;stroke-width:7;stroke-miterlimit:10;}
	.st1{fill:#EFBC97;stroke:#EFBC97;stroke-miterlimit:10;}
	.st2{fill:none;stroke:#EFBC97;stroke-width:7;stroke-miterlimit:10;}
	.st3{fill:#FFFFFF;stroke:#543F1D;stroke-width:7;stroke-miterlimit:10;}
	.st4{fill:#EFBC97;stroke:#543F1D;stroke-width:5;stroke-miterlimit:10;}
</style>
<polygon class="st0" points="912.31,235.48 919.55,203.03 885.51,208.58 862.35,217.37 828.04,233.07 798.48,251.45 773.19,272.69 
	754.36,290.41 733.84,316.24 722.75,330.73 708.33,356.87 698.41,376.98 686.38,409.78 680.67,430.34 676.73,454.19 674.03,479.46 
	673.55,498.88 675.75,528.73 676.94,544.98 680.92,562.93 686.89,587.19 701.87,625.61 719.81,657.72 740.47,685.46 758.68,705.78 
	790.46,734.98 818.42,753.45 847.37,769.94 875.5,780.41 885.98,783.44 893.85,750.94 866.91,741.14 838.1,726.54 819.77,714.97 
	790.99,690.49 763.72,660.58 737.69,621.83 722.9,586.06 712.67,550.34 707.85,515.73 708.09,477.72 711.92,447.04 717.22,426.13 
	726.94,398.06 741.1,368.52 757.38,341.87 776.85,317.26 801.29,293.04 832.99,269.43 864.81,252.65 895.89,241.25 "/>
<polygon class="st1" points="885.75,300.07 859.62,315.04 847.47,323.79 837.47,332.5 823.46,345.18 807.71,365.34 791.87,391.08 
	783.47,411.2 776.16,432.26 773.11,449.45 771.43,460.97 770.26,479.55 770.28,503.87 773.97,523.1 781.01,549.94 791.41,574.26 
	807.46,599.67 819.45,614.5 836.42,631.74 853.89,645.4 869.28,654.91 878.04,660.35 880.11,654.11 861.59,643.32 849.47,633.57 
	837.66,624.56 830.74,616.45 817.8,602.46 810.87,592.08 800.52,577.64 793.29,561.96 787.41,547.45 783.5,535.57 780.45,521.61 
	777.7,508.39 776.86,490 776.6,479.59 776.63,469.71 777.55,461.54 779.49,450 781.57,436.92 783.92,427.63 787.77,417.98 
	792.07,407.53 796.5,396.56 801.91,386.29 806.23,379.63 819.06,361.21 827.45,351.22 840.88,337.57 852.56,327.59 864.84,318.84 
	879.18,310.69 889.41,305.12 "/>
<polygon class="st1" points="1189.48,673.4 1215.15,657.65 1227.02,648.54 1236.75,639.53 1250.38,626.43 1265.5,605.81 
	1280.56,579.6 1288.34,559.23 1295.02,537.97 1297.54,520.69 1298.88,509.12 1299.48,490.51 1298.73,466.21 1294.46,447.09 
	1286.61,420.48 1275.47,396.49 1258.66,371.57 1246.23,357.12 1228.74,340.4 1210.87,327.27 1195.2,318.23 1186.28,313.06 
	1184.39,319.36 1203.24,329.59 1215.64,338.97 1227.72,347.61 1234.89,355.5 1248.24,369.1 1255.48,379.27 1266.26,393.39 
	1273.97,408.84 1280.28,423.17 1284.55,434.92 1288.03,448.78 1291.17,461.91 1292.57,480.27 1293.15,490.66 1293.41,500.54 
	1292.74,508.74 1291.15,520.34 1289.47,533.46 1287.4,542.82 1283.84,552.59 1279.86,563.17 1275.77,574.26 1270.67,584.69 
	1266.55,591.47 1254.28,610.28 1246.21,620.51 1233.19,634.57 1221.82,644.89 1209.81,654.02 1195.72,662.6 1185.66,668.47 "/>
<polygon class="st0" points="1180.84,755.62 1175.67,788.46 1209.3,780.77 1231.86,770.53 1265.1,752.69 1293.43,732.47 
	1317.33,709.67 1335,690.79 1353.84,663.72 1363.99,648.55 1376.73,621.55 1385.35,600.85 1395.28,567.35 1399.67,546.48 
	1402.1,522.43 1403.19,497.03 1402.43,477.62 1398.35,447.97 1396.13,431.83 1391.02,414.17 1383.53,390.33 1366.15,352.95 
	1346.21,322.03 1323.83,295.65 1304.37,276.53 1270.8,249.4 1241.73,232.75 1211.79,218.12 1183.06,209.46 1172.41,207.1 
	1166.61,240.03 1194.12,248.1 1223.79,260.84 1242.82,271.23 1273.09,293.84 1302.21,321.96 1330.64,358.98 1347.66,393.74 
	1360.13,428.75 1367.14,462.97 1369.3,500.93 1367.43,531.79 1363.46,552.99 1355.55,581.62 1343.28,612 1328.72,639.63 
	1310.85,665.43 1288,691.14 1257.86,716.71 1227.16,735.47 1196.86,748.82 "/>
<path class="st0" d="M1064.42,89.64l-19.71,10.61l-11.12,10.11l-14.65,16.17l-10.61,21.22l-10.11,21.73l-4.55,18.19l-3.03,31.33
	l3.54,33.09l3.03,30.32l3.79,20.46l-10.36,4.55l-23.75,15.16l-24.25,18.19l-17.43,19.71l-16.67,16.67l-13.64,25.01l-10.61,26.53
	l-4.55,23.49v27.28l5.31,25.01l9.85,25.01l15.16,24.25l32.59,27.28l32.59,15.16l34.11,11.37l28.8,4.55h14.4l3.79,24.25l3.03,16.29
	l2.65,26.91l0.76,20.46l-3.03,13.64l-7.2,14.02l-9.85,9.09l-12.13,6.06l-24.63,6.06h-14.4l5.31-3.79l14.4-6.44l10.23-7.58l5.31-7.2
	l7.2-19.71l0.76-18.95l-5.31-17.05l-13.64-15.54l-12.13-6.44l-11.75-3.41l-19.83-1.89L960,643.54l-13.56,4.55l-14.78,7.58
	l-12.87,14.28l-6.83,13.01l-3.03,12.13l-0.76,17.43l2.27,11.75l12.13,21.6l16.67,15.16l15.18,9.85l23.86,7.2l15.92,1.89h16.29
	l20.08-3.03l21.22-6.44l12.63-7.2l12.76-7.96l11.75-14.78l4.93-9.47l4.93-17.43l1.89-15.16l-2.65-30.32l-11.37-67.45l14.02-5.31
	l21.6-13.64l13.64-12.51l11.29-14.02L1156,540l7.2-18.86l3.41-20.84v-22.36l-4.55-15.54l-9.47-20.08l-14.02-16.29
	c0,0-15.92-12.51-17.05-12.51s-24.25-10.23-24.25-10.23l-20.84-3.41h-15.92l-4.93-0.38l-7.2-38.65l18.57-11.37l11.37-8.34
	l10.23-10.61l13.64-14.4l10.61-16.67l11.37-22.74l5.31-13.26l5.68-21.98l3.41-25.39l-0.38-26.53l-4.93-23.49l-7.2-26.53l-14.4-28.8
	l-12.88-16.67l-9.09-7.96h-12.13L1064.42,89.64z"/>
<path class="st2" d="M512.17,69.43"/>
<polygon class="st3" points="1023.18,369.56 979.03,399.87 960,415.54 952.25,428.17 943.16,441.81 937.09,458.99 934.06,472.63 
	931.54,488.8 931.54,506.99 935.07,525.18 941.14,540 960,565.6 977.36,576.72 1006.82,588.34 1050.27,590.86 1058.36,586.82 
	1039.16,454.95 1017.94,464.55 1002.27,478.19 997.73,490.82 994.95,502.95 994.95,521.64 1003.28,543.37 1048.25,558.02 
	1033.6,566.11 1005.31,561.56 991.16,552.46 978.53,534.27 965.39,505.98 963.87,486.78 967.41,465.56 978.53,440.8 991.16,427.16 
	1011.87,413.01 1023.18,406.44 1030.06,404.42 "/>
<path class="st2" d="M1777.47,274.06"/>
<polygon class="st3" points="1055.33,453.43 1076.04,580.76 1102.82,561.05 1115.45,540 1118.99,511.58 1112.42,487.79 
	1097.26,465.05 1073.01,453.43 "/>
<path class="st2" d="M1462.57,453.43"/>
<polygon class="st3" points="1075.22,135.31 1053.49,147.95 1040.86,164.11 1032.78,179.27 1027.22,198.98 1023.18,223.23 
	1027.22,249.5 1032.27,263.65 1059.05,247.99 1079.77,228.79 1096.44,204.54 1105.03,170.18 1102,152.49 1095.43,137.84 
	1087.35,133.29 "/>
<g>
	<g>
		<path class="st4" d="M605.69,908.96l56.54-79.5v-0.44h-51.73v-10.59h68.83v7.74l-56.21,79.13v0.47h56.96v10.59h-74.39V908.96z"/>
		<path class="st4" d="M718.75,916.36l-33.39-97.93h14.31l15.84,48.28c4.38,13.2,8.15,25.14,10.9,36.54h0.36
			c2.85-11.32,7.04-23.64,11.61-36.38l17.24-48.44h14.08l-36.42,97.93H718.75z"/>
		<path class="st4" d="M793.85,818.43v58.04c0,21.84,10.09,31.11,23.84,31.11c15,0,24.79-9.6,24.79-31.11v-58.04h13.24v57.14
			c0,30.1-16.48,42.39-38.58,42.39c-20.81,0-36.52-11.41-36.52-41.84v-57.69H793.85z"/>
		<path class="st4" d="M878.54,818.43h13.16v47.2h0.47c2.68-3.79,5.5-7.21,8.05-10.41l31.14-36.8h16.3l-36.86,41.62l39.79,56.3
			h-15.61l-33.5-48.03l-9.78,10.74v37.3h-13.16V818.43z"/>
		<path class="st4" d="M1047.71,866.41c0,33.6-21.31,51.54-47.3,51.54c-27.04,0-45.82-20.11-45.82-49.7
			c0-31.03,19.99-51.42,47.21-51.42C1029.63,816.83,1047.71,837.32,1047.71,866.41z M968.51,867.96c0,20.96,11.85,39.71,32.61,39.71
			c20.91,0,32.66-18.45,32.66-40.7c0-19.5-10.59-39.85-32.5-39.85C979.41,827.12,968.51,846.54,968.51,867.96z"/>
		<path class="st4" d="M1142.46,911.96c-5.91,2.14-17.61,5.38-31.35,5.38c-15.46,0-28.21-3.75-38.12-12.94
			c-8.79-8.12-14.2-21.12-14.18-36.36c0.04-29.21,20.96-50.59,55.12-50.59c11.78,0,21.12,2.49,25.5,4.49l-3.29,10.32
			c-5.43-2.38-12.23-4.19-22.52-4.19c-24.73,0-40.95,14.79-40.95,39.31c0,24.81,15.5,39.51,39.35,39.51
			c8.61,0,14.45-1.17,17.49-2.64v-29.17h-20.63v-10.12h33.57V911.96z"/>
		<path class="st4" d="M1162.47,819.77c6.68-1.29,16.27-2.11,25.32-2.11c13.98,0,23.19,2.55,29.54,8.06c5.04,4.29,8,10.96,8,18.62
			c0,12.86-8.55,21.42-19.22,24.95v0.36c7.78,2.62,12.47,9.68,14.95,19.83c3.35,13.69,5.77,23.05,7.84,26.88h-13.66
			c-1.6-2.83-3.91-11.18-6.7-23.45c-3.02-13.41-8.54-18.61-20.46-18.99h-12.46v42.44h-13.16V819.77z M1175.62,864.35h13.46
			c14.09,0,23.02-7.37,23.02-18.59c0-12.72-9.55-18.24-23.44-18.27c-6.38,0-10.8,0.56-13.03,1.11V864.35z"/>
		<path class="st4" d="M1260.39,885.58l-10.53,30.78h-13.65l34.67-97.93h15.83l34.82,97.93h-14.08l-10.92-30.78H1260.39z
			 M1293.87,875.69l-10.09-28.18c-2.21-6.41-3.74-12.24-5.25-17.87h-0.36c-1.46,5.72-3.05,11.71-5.05,17.7l-10.04,28.35H1293.87z"/>
		<path class="st4" d="M1336.42,819.77c8.08-1.27,17.65-2.11,28.02-2.11c18.86,0,32.38,4.3,41.3,12.3
			c9.12,7.93,14.44,19.27,14.44,35.04c0,16.06-5.22,29.05-14.66,38.09c-9.63,9.12-25.4,14.12-45.14,14.12
			c-9.43,0-17.25-0.35-23.95-1.09V819.77z M1349.65,906.4c3.34,0.52,8.22,0.6,13.24,0.6c28.22,0.07,43.42-15.04,43.42-41.51
			c0.16-23.13-13.46-37.72-41.23-37.72c-6.81,0-11.92,0.61-15.43,1.29V906.4z"/>
	</g>
</g>
</svg>
