<?xml version="1.0" encoding="utf-8"?>
<!-- Generator: Adobe Illustrator 28.0.0, SVG Export Plug-In . SVG Version: 6.00 Build 0)  -->
<svg version="1.1" id="Layer_1" xmlns="http://www.w3.org/2000/svg" xmlns:xlink="http://www.w3.org/1999/xlink" x="0px" y="0px"
	 viewBox="0 0 612 792" style="enable-background:new 0 0 612 792;" xml:space="preserve">
<style type="text/css">
	.st0{fill:none;stroke:#221F20;stroke-width:7.9937;stroke-miterlimit:10;}
	.st1{fill-rule:evenodd;clip-rule:evenodd;fill:#221F20;stroke:#221F20;stroke-width:0.4819;stroke-miterlimit:10;}
	.st2{fill:none;stroke:#221F20;stroke-width:0.4819;stroke-miterlimit:10;}
	.st3{stroke:#000000;}
	.st4{font-family:'MyriadPro-Regular';}
	.st5{font-size:48px;}
	.st6{fill:none;stroke:#000000;}
	.st7{font-family:'BritannicBold';}
	.st8{fill:none;stroke:#000000;stroke-miterlimit:10;}
	.st9{font-family:'MicrosoftJhengHeiRegular';}
	.st10{font-size:30.5433px;}
	.st11{font-family:'MicrosoftJhengHeiLight';}
	.st12{font-size:29.6144px;}
	.st13{font-size:27.1403px;}
	.st14{font-size:27.2493px;}
</style>
<g>
	<path class="st0" d="M282.7,462.7c105.9,0,192.2-85.8,192.2-191.1s-86.4-191-192.2-191c-105.9,0-192.2,85.8-192.2,191.1
		S176.8,462.7,282.7,462.7L282.7,462.7z"/>
	<path class="st0" d="M283.3,448c97.3,0,176.6-79.2,176.6-176.3S380.6,95.3,283.3,95.3c-97.3,0-176.6,79.2-176.6,176.3
		S186,448,283.3,448L283.3,448z"/>
	<path class="st1" d="M283.9,301.2c3.5,0,6.4-29.9,6.4-66.6s-2.9-66.6-6.4-66.6c-3.5,0-6.4,29.9-6.4,66.6S280.3,301.2,283.9,301.2
		L283.9,301.2z"/>
	<path class="st1" d="M175.9,224.4c2-2.9,28.1,11.8,58.3,32.8c30.2,21,53.1,40.3,51,43.2s-28.1-11.8-58.3-32.8
		C196.8,246.6,173.9,227.3,175.9,224.4L175.9,224.4z"/>
	<polygon class="st1" points="296.7,69.2 296.7,55.2 273.3,55.1 273.2,69.1 	"/>
	<path class="st2" d="M285,62.2c-2.7,0.4-0.6,5.5,0,7"/>
</g>
<text transform="matrix(0.9998 -1.865663e-02 1.870000e-02 0.9998 152.7715 521.2127)" class="st3 st4 st5">Механический</text>
<text transform="matrix(0.7074 -1.320000e-02 1.870000e-02 0.9998 459.9607 515.4806)" class="st6 st7 st5"> </text>
<g>
	<g>
		<g>
			<g>
				<g>
					<path d="M449.1,534.3c0.4,0,0.3-0.4,0.3-0.5C448.8,534,449.2,534.4,449.1,534.3z"/>
					<polygon points="442.1,535.3 442.3,535.1 441.2,535.5 					"/>
					<path d="M435.6,535.3c0.6,0.7,2.4-0.1,3.5,0.1l0.2,0.2l0.5-0.6C438.5,535.1,436.6,535.5,435.6,535.3z"/>
					<path d="M432.1,533.7c0.2,0.3-0.8,0.2,0.8,0.1c-0.1,0-0.1,0-0.1-0.1C432.6,533.8,432.5,533.8,432.1,533.7z"/>
					<path d="M432.8,533.7C433.5,533.7,432.3,533.5,432.8,533.7L432.8,533.7z"/>
					<path d="M429.6,533.9l0.9-0.2c-0.2-0.2-1-0.2-0.7-0.3C428.9,533.5,429.1,533.6,429.6,533.9z"/>
					<path d="M428.8,534.4l0.5-0.1C429.1,534.2,429,534.2,428.8,534.4z"/>
					<path d="M430.2,534.1l-1,0.2c0.1,0.1,0.1,0.3,0.5-0.1C429.6,534.5,429.8,534.2,430.2,534.1z"/>
					<path d="M430.8,534.2c0.5,0.2,1.2,0.2,0.3,0.5C432.8,534.6,432.5,534.1,430.8,534.2z"/>
					<path d="M435.3,536l0.7,0.2l0.6-0.2C436.2,536.1,435.2,535.8,435.3,536z"/>
					<path d="M424,533.5c-0.1,0.2,0.3,0.4,0.4,0.6l0.7-0.2C424.6,533.8,424,533.8,424,533.5z"/>
					<path d="M424.3,534.1l-1,0.3C424.2,534.4,424.4,534.3,424.3,534.1z"/>
					<polygon points="428.6,535.2 430.2,534.7 428.3,535.2 					"/>
					<polygon points="420.1,533.5 420.7,533.2 419.7,533.7 					"/>
					<path d="M417.6,533.6c0.4-0.3-0.6-0.5-0.1-0.7c-0.7,0-1.3,0.3-1.8,0.5C416.2,533.3,416.8,533.3,417.6,533.6z"/>
					<path d="M414.8,533.8c0.3-0.1,0.6-0.2,0.9-0.3C415.4,533.5,415,533.6,414.8,533.8z"/>
					<path d="M421.6,534.3c-0.1-0.1-0.2-0.3-0.8-0.4l0.4,0.4C421.3,534.3,421.5,534.3,421.6,534.3z"/>
					<path d="M421.2,534.3L421.2,534.3c-0.4,0-0.7,0-0.9,0C420.5,534.3,420.7,534.3,421.2,534.3z"/>
					<path d="M421.7,534.3c0,0-0.1,0-0.1,0C421.7,534.4,421.7,534.4,421.7,534.3z"/>
					<path d="M426,534.8c-0.6,0.2-1.8,0.5-0.6,0.9C425.8,535.4,425.1,535.2,426,534.8z"/>
					<path d="M422.2,534.8l1.1,0.1c0-0.1-0.2-0.3,0.1-0.4L422.2,534.8z"/>
					<polygon points="421.7,535 422.2,534.8 421.8,534.8 					"/>
					<path d="M416.6,534.2c-0.5,0.2-1,0.2-1.5,0.2c0.6,0.1,1.2,0.1,1.8,0.1C417,534.4,417.2,534.1,416.6,534.2z"/>
					<path d="M418.8,534.3c0,0-0.1,0-0.1,0C418.8,534.3,418.9,534.3,418.8,534.3z"/>
					<path d="M409.5,534.4C409.5,534.4,409.5,534.4,409.5,534.4c0.1,0.1,0.1,0,0.1,0L409.5,534.4z"/>
					<path d="M417,534.6c0.5,0.1,0.7,0,1-0.2c-0.3,0-0.7,0.1-1.1,0.1C416.9,534.6,416.8,534.6,417,534.6z"/>
					<path d="M413.2,534c0.2,0.1,0.5,0.2,0.8,0.2C413.8,534.1,413.3,533.8,413.2,534z"/>
					<path d="M418.6,534.2C418.6,534.2,418.6,534.2,418.6,534.2C418.5,534.1,418.5,534.1,418.6,534.2z"/>
					<path d="M418.6,534.2c-0.2,0.1-0.4,0.2-0.6,0.3c0.3,0,0.5-0.1,0.8-0.1C418.7,534.3,418.6,534.2,418.6,534.2z"/>
					<path d="M407.8,537.1c0.1-0.4,1.3-0.8,2.3-0.3c1-0.3,0.4-1.6-0.5-2.3c0,0.2,0,0.3-1.1,0.6c0.4,0.2,2.3,0.5,1.5,0.9
						c-1.4,0.2-1.1-0.1-1.8-0.3c0.6,0.5-1.8,0.7-1.5,1.4l1.2-0.3C407.9,536.8,407.4,537,407.8,537.1z"/>
					<path d="M411.5,534.5l0.4,0c-0.5-0.1-0.9-0.2-1.5-0.5c-0.7,0.2-0.9,0.3-0.9,0.5l2.1,0.1L411.5,534.5z"/>
					<path d="M413.9,534.5c-0.3,0.4-1.4,0.6-0.7,1.1c1.3,0,0.9-0.4,1.6-0.5C412.8,535.1,415.4,534.7,413.9,534.5
						c0.4,0,0.8,0,1.1-0.1c-0.4,0-0.7-0.1-1.1-0.2c0,0,0,0,0,0h0c0,0,0,0,0,0c0.1,0,0.1,0.1,0,0.1c0,0,0,0,0,0
						C414,534.3,414,534.4,413.9,534.5c-0.6-0.1-0.1-0.1,0.1-0.2c0,0,0,0,0-0.1c0,0,0,0,0,0l-2,0.2
						C412.4,534.5,413,534.5,413.9,534.5z"/>
					<path d="M424.2,536.6C424.2,536.6,424.2,536.5,424.2,536.6C424,536.6,424,536.6,424.2,536.6z"/>
					<path d="M423.4,536.4c0.1-0.1,0.3-0.2,0.8-0.2c0.4,0.1,0,0.2,0,0.3c0.3-0.1,1-0.3,0.1-0.5l-0.1,0.1c-0.8-0.2-1.9-0.7-1.8-0.7
						C422.6,535.7,422.8,536,423.4,536.4z"/>
					<path d="M418.6,535.5l-1.7,0.2l0.9,0.4l0-0.2C418.7,536,418.5,535.7,418.6,535.5z"/>
					<polygon points="409.3,534.2 409.5,533.7 408.5,534.4 					"/>
					<polygon points="407,534.2 407.1,533.8 406.5,534.1 					"/>
					<path d="M281.6,539.1l-0.5,0.1C281.3,539.2,281.5,539.2,281.6,539.1z"/>
					<path d="M285.2,539.2l0.1-0.2C285.1,539.1,285.1,539.2,285.2,539.2z"/>
					<path d="M352.4,534.3c-0.7-0.4-1.5-0.9-1.5-0.5l0.2,0.4C351.7,534.1,352.1,534.2,352.4,534.3z"/>
					<path d="M315,536.9c0.1,0,0.1,0.1,0.2,0.1c0.2-0.2,0.4-0.3,0.5-0.4C315.5,536.7,315.3,536.8,315,536.9z"/>
					<path d="M314.5,538.7l-1-0.3C313.8,538.5,314.1,538.6,314.5,538.7z"/>
					<path d="M261.7,539.6l-0.6,0.4C262,540,261.6,539.8,261.7,539.6z"/>
					<path d="M384.3,534.4c-0.6-0.2-1.1-0.2-1.6-0.3C383.5,534.4,384.1,534.8,384.3,534.4z"/>
					<path d="M283,534.5c-0.3,0.1-0.4,0.2-0.4,0.3C282.9,534.7,283.1,534.6,283,534.5z"/>
					<path d="M380.9,534.1c0.1,0,0.2,0.1,0.3,0.1c0.5-0.1,0.9-0.1,1.5-0.1C382.1,533.9,381.5,533.8,380.9,534.1z"/>
					<path d="M189.6,539.2c-0.1,0-0.1,0-0.2,0C189.4,539.2,189.5,539.2,189.6,539.2z"/>
					<path d="M168.6,534.9c0.2,0,0.5,0,0.9,0C169.3,534.8,169.1,534.8,168.6,534.9z"/>
					<path d="M398.1,534C398.6,534,398.2,534,398.1,534L398.1,534z"/>
					<path d="M400.4,535.8c-0.1,0-0.2,0.1-0.2,0.2C400.2,535.9,400.3,535.8,400.4,535.8z"/>
					<path d="M376.2,536.8C376.2,536.8,376.2,536.8,376.2,536.8C376.3,536.9,376.2,536.9,376.2,536.8z"/>
					<path d="M398.8,534.2c-0.2,0-0.4-0.1-0.6-0.1C398.3,534.1,398.5,534.2,398.8,534.2z"/>
					<path d="M398.7,534c0.2,0,0.3,0,0.4,0C399.2,534,399.1,534,398.7,534z"/>
					<path d="M397.4,534.1c0.3,0,0.5,0,0.8,0c-0.1,0-0.1,0-0.1-0.1C398,534,397.8,534,397.4,534.1z"/>
					<path d="M228.2,538.1c0,0-0.1,0-0.1,0C227.7,538.2,227.9,538.2,228.2,538.1z"/>
					<path d="M340.2,538.8C340.2,538.8,340.2,538.8,340.2,538.8C340.2,538.8,340.2,538.8,340.2,538.8L340.2,538.8z"/>
					<path d="M338.5,539.1c0.7-0.5,1.1-0.5,1.7-0.4l-0.6-1.2L338.5,539.1z"/>
					<path d="M272.9,539.3l1.2,0.4c-1.4,0.6-2.5,0.4-1.4,1c0.2-1.4,4.6-0.1,4.8-1.5l0.8,0.3c-0.2,0-0.3,0.1-0.5,0
						c1.5,0.7,1.1-1,3.1-0.8c0.7,0.1,1.2,0.3,0.7,0.5l1.5-0.3c0.4,0,0.3,0.3-0.1,0.2l2.3-0.1l0,0c0.3-0.2,1.1-0.5,1.5-0.7
						c0.6,0.2-0.3,0.1-0.1,0.3l1.3-0.3c0.5,0.3-0.5,0.7-1.4,0.6c1.2,1.4,1.1-0.3,3.7,0.5l-1.2,0.2c0.8,0.8,1.7,0.5,3.1,1
						c-0.3-0.2-2.8-1.2-1.4-1.5c0.4,0.1,0.9,0.2,1.7-0.1c0,0.5,0.7,0.4,1.7,0.3l-0.1,0.6c1-0.2,0.9-0.5,1.5-0.8
						c1.1,0.1,1.3,0.6,1.6,1c1.8,0.1-1.2-0.8,0.9-0.9c1.5,0.2,2.5,0,4.3-0.4c1,0.2-0.2,0.4,0.2,0.6l0.9-0.5c0.2,0,0.1,0.2,0.1,0.2
						c0.8-0.2,0.1-0.6,1.3-0.8c0.3-0.7,2.5,1,4,0.2c0.4,0.2-0.2,0.4-0.1,0.6c2.1-0.5,1.8-0.4,3.5-1.1l1.4,0.4
						c-1.1-0.5,0.3-1,1.5-1.5c-0.4-0.2-0.7-0.4-0.9-0.5l1.9-0.3c0.2,0.1,0,0.3-0.3,0.6c0.1,0,0.2-0.1,0.4-0.2c0.7,0.2,0.3,0.6-0.2,1
						c-0.2-0.1-0.5-0.3-0.7-0.4c-0.5,0.4-0.9,0.8-0.8,1.2c0.1-0.1,0.4-0.1,0.6-0.2c-0.1,0.1-0.2,0.2-0.1,0.3
						c0.1,0.1,0.3-0.1,0.6-0.2l0.4,0.7l0.1-0.3l2.5,0.5c1.8-0.7,3.3-1.8,6.1-2.1c-0.7,0.5-0.1,0.8-0.2,1.5c-0.8-0.7-2.2,0.3-3.6,0.2
						c0.8,0.1,0.6,0.4,0.4,0.5l2.6-0.6c-0.1,0.5,0.5,0.4,1.2,0.6c-0.5-1,1.9-0.7,3-1c0.1,0.3-0.2,0.7-1.5,0.6
						c1.4,0.8,1.8-1.2,3.2-0.5c-0.3,0-0.5,0-0.6,0.1c0.7-0.3,2.5-0.1,2.1,0.2l-0.3,0c2.1,0.1,6.4,0,6.7-0.8c0,0.1-0.3,1-0.4,1.2
						l3.7-2.9c-0.3,0.7,0.9,2.5-0.8,2.9c0.5,0.1,1.1,0.2,2.2,0c-0.3-0.1-0.9-1.1-0.4-1.1c1.3,0.8,0.9,0.4,2.5,1.1
						c-0.5-0.2,0.1-1.3,0.9-1.3c-0.1,0.2,0.1,1.1-0.2,1.2l2-1.1c-0.5,0.2-0.1,1,0.4,1.3c-0.2-0.2,1.7,0,2.3-0.1l-0.9-0.3
						c2.3,0.2,2.2-1.6,4.5-1.5c-0.3,0.2-0.7,1.4,0.5,1.6c0.5-0.6,2.3-2.8,4.3-3.2l0.4,0.3l1.5-0.4c-1,0.9-3.6,2.7-5.1,3.4
						c0.9,0.3,0.2,0.4,1.5,0.4c0.5,0.3-0.7,0.5-1.1,0.5l3,0.2c-0.1-0.7,2.3-0.7,2.1-1.2l-3.2,0.7c-0.1-0.7,1.9-1.9,4-1.8
						c0.5,0.3-0.4,1.2-0.4,1.4c0.3-0.2,2-0.4,2.2-0.3l-0.9,0.4c1.2,0.2,1.9-0.9,3.3-0.2c0.5,0,1.4,0.9,1.5,0.5
						c-0.8-0.8-0.9-3.1-0.4-3.7c0.2,0,2.5,0.7,3.1,1.1c0.8,0.6-1.2,1.4-0.5,2c0-0.2,0.5-0.4,0.6-0.5c0.5,0.2-0.2,0.6,0.9,0.5
						c0.2-0.7,2.2,0.1,0.5-0.6c1.1-0.2,1.1,0.1,2.4,0.1c-0.4-0.4,1.1-1.5,2.2-1.7c-0.1,0.2,0.2,0.4,0.3,0.5c2.2,0.1,3.4,0.4,5.5,0.4
						c0.2,0.2,1.2,0.4,0.8,0.7c0.3-0.1,0.6-0.3,1.2-0.4c1.2,0.6-1.4,0.1-0.5,0.8c0.1-0.4,1.6-0.5,2.5-0.8c-0.3-0.6-2.1-0.1-3,0.1
						c0-0.8,1.6-1.7,3.7-2.1c1.7-0.2,0.7,0.5,1,0.4c3.2,0.2,2.7-1.5,5.4-0.9c1.1,0.5,0,1.1,0.3,1.5c-1.4,0.2-2.1-0.3-3.1-0.3
						l1.2,0.2c-0.4,0.2-1.4,0.3-1.9,0.2c0.9,0.5,5.4,0.1,7.9,0.5c0.4-0.2,1.2-0.4,0.8-0.6l-0.8,0.1c-0.7-0.4,1.5-0.6,0.5-0.8
						c1-0.3,2.2-0.8,3.7-0.5l0.3,0.6c0-0.2-1-0.4-1.4-0.2c0.6-0.3,2.3,0.8,3,0l-1-0.4c1.1-0.3,2.4-1,3.7-0.8
						c-0.6-0.6-0.3,0.1-1.2-0.6c0.8,0.9-3.4,0-2.1,0.9c-1-0.8-1.7-0.3-2.9-1c0,0.2,0.4,0.4-0.7,0.3c0,0.1-0.2,0.1-0.2,0.2
						c0,0,0,0-0.1,0c0,0,0,0,0.1,0c0,0,0,0,0,0c0.3,0.1,0.5,0.2,0.6,0.3c-0.5,0.5-2.3,0.5-2.9,0.7c-0.6-0.1,0.3-0.2-0.1-0.5
						l-0.9,0.4c-0.1-0.5-1.7-0.8-0.2-1l-1.4,0c-0.8-0.2-1.9-0.3-2.6-0.2c-0.6-0.1-1.6,0.5-1.1,0.2l-2.2,0.3l0-0.1
						c-2.1-0.1-4.4,0.7-6.9-0.1c-0.7,0.1-1.5,0.2-2.7,0.1l-0.2-0.4c-0.9,0.1-2.8-0.4-3.2,0c-1-1-4.5-0.2-6.1-0.4l-0.1,0.5
						c-1.1,0-2.2,0.1-3.6,0.3l0.1,0.5c-1.2,0.4-3.1-0.3-5-0.3c0.1-0.2,0.6-0.1,1,0c-2.3-1-4.8,0.7-6.9,0c-0.5,0.2-0.9,0.1-1.2,0
						c0,0,0.1,0,0.1,0c0,0-0.1,0-0.2,0c-0.2-0.1-0.5-0.2-0.7-0.2c0.2,0.1,0.4,0.2,0.6,0.2c-0.4,0-1,0.1-1.6,0.2l-0.2-0.5
						c0,0-0.1,0-0.1,0c-0.6-0.2-0.5,0.2-0.2,0.6c-0.3,0.1-0.6,0.2-0.8,0.3c-0.5-0.8-1.5,0.3-2.2-0.6c-0.4,0.4-3,0.3-3.3,1.2
						c0-0.1-0.2-0.2,0.1-0.2c-0.7-0.1-1.3-0.2-1.9,0l-0.3-0.6l-1.4,0.8c-0.9-0.4-1.2-0.6-0.4-1.1c-2.1,0.7-1.7,0.3-3.5,1l0.1-0.4
						c-0.6,0-1.6,0.5-2,0.2c-1.4-0.8-7-0.1-10.7-0.8c0.7,1.2-1.7-0.5-1.8,0.4c-0.2-0.3-0.7-0.4-0.1-0.7c-1.9,0.3-2.8-0.4-4.1,0.3
						c-0.2-0.3,0.4-0.4,0.2-0.6c-0.1,0.1-0.6,0.2-0.8,0.1s0.3-0.2,0.6-0.3c-1.9,0-2.1,0.9-2.2,1.7c-1-0.4-1.4-0.3-2.1,0.2
						c-0.3-0.3-0.9-0.5,0.3-0.6c-0.7,0-4.1-0.4-4.1,0.3c-0.2-0.2-0.9,0-1.1,0c-1.5,0-1.6-0.1-3.1,0l0.4,0.1
						c-0.6,0.8-1.2,0.2-2.4,0.3l0-0.1c-2.7-0.6-1.2,0.3-3.8-0.4l0.1,0.5c-0.2,1-2.4-0.6-3.9-0.2l0.6,0.3c-0.9,0.3-2.4-1.4-3.2-1.5
						c-0.2-0.1,0.3-0.1,0.5-0.2c-2.2-0.6-0.3,0.6-2,0.8c-0.3-0.3,0.4-0.9-0.7-0.9c-0.6-0.3-3.2,1.1-4.8,0.5c0.3,0.3,0.7,0.5-0.1,0.7
						c-1.2,0.1-3.2-1-4.3-0.2c-0.1-0.1-0.2-0.1-0.2-0.2c-0.9,0.2-2.9,0.3-3.5,0.8c-0.8-1.7-5.6,0.8-5.6-0.7l-2.8,0.1l0.1-0.2
						c-1.8-0.1-2.4,0.3-3,0.6c-0.4-0.1-0.1-0.2-0.1-0.3c-2.6-0.3-2.9-0.2-5,0.5l-0.2-0.5c-0.6,0.3-3.8-0.8-6.3-0.2
						c0-0.1,0.1-0.2,0.3-0.2c-2.9,0.6-6.9-1.4-7.9,0.4l-1.9,0.4c2.4,0.1-0.4,0.8,0.6,1.1c-1,0.1-2.5-0.5-1.3-0.6l0.2,0.1
						c0.4-0.9-3-0.3-3-1c-4.8,0-9.5-0.5-14-0.5l0.5,0.7l-1.6,0c-0.4-0.2-0.6-0.6,0.6-0.5c-0.6-0.4-1.9,0.3-1.9,0.5
						c-2.2-0.3,0.9-0.8,0.2-0.9l-0.9,0l0.2,0.1c-0.7,0.3-0.8,0.6-2.1,0.6c-0.9-0.2-0.4-0.5-0.8-0.5c0,0-0.1-0.1-0.5,0l-2-0.1
						l0.8,0.6c-0.9,0.3-1.9,0-0.9,0.6c-1.3-1-7.4-0.4-8.2-0.7c-1.2,0.4-2.4,0.4-3.9,0.4c0.4,0.1,0.6,0.8-0.7,0.7
						c0.5-1.3-2.4-0.6-3.4-1.5c0.9,0.6-3.7,0.2-2.2,1.1c-1.1-0.1-0.1-0.5-0.9-0.8c-2.6,0.5-5.7-0.3-8.9-0.2
						c-0.1,0.2,0.5,0.4-0.2,0.7l-1.7-0.9c-0.6,0.1-0.6,1-1.7,0.4c0.2,0.2,0.4,0.4,0,0.4c-6.2-0.9-12.7,0.7-19.1-0.9
						c0.9,0.3,0.3,0.4-0.4,0.4c0.4,0.1,0,0.4,0.1,0.7l-2.6-0.7c-0.5,0.7-2.8,0-3.1,0.7l0.8-0.1c-1.1,0.8,1.6,1.7,1.4,2.6
						c1.2-0.8,3.3,1.3,5.3,0c0.4,0.2-0.4,0.3-0.1,0.5c0.5-0.4,1.1-0.5,2.3-0.3l-0.1,0.1c3.3-0.1,4.7,0.3,8.3,0.6l-0.3-0.5
						c0.8,0.1,0.9,0.2,1.3,0.3c0.9-0.7-2.2,0-1.4-0.8c1.1,1,5.6,0,6.3,1.1c1.2,0-0.4-0.5,0.9-0.5l0.3,0.3l0.3-0.4
						c0.8,0.1,1.2,0.4,1.2,0.7c-0.2,0-0.6,0.1-0.8,0.1c1,0.3,2.9-0.1,3.3,0l-1.2-0.2c3.3-0.3,7.4,0.1,10.6-0.5l-0.2-0.2
						c2.4-0.4,2,0.2,4.6,0l-0.1,0c0.5-0.2,1.2-0.3,2-0.3c-0.7,0.3,1.3,0.5,0.4,0.8c2.6-0.4,1.3-0.3,3.1-1.2l0.4,0.4
						c0.6-0.3,0.6-0.5,2-0.6c-1.1,0.3,0.9,0.6-0.4,1c2.8,0.8,4.2-0.8,5.5,0.4c1.3-1-2.4-0.6-1.7-0.8c-0.6-0.3,1.1-0.8,1.9-0.7
						c0.9,0,1.5,1.3,3.8,1.3c-0.2,0-0.2,0.1-0.5,0.1c0.8,0.3,1.7-0.3,2.7,0.1c0.6-0.6,1.4,0,1.5-0.8l-2.1,0.2
						c1.2-0.2,2.3-1.1,4.2-0.7c-0.1,0.2-0.7,0.4-1.1,0.5c0.6,0.2,1.1-0.2,1.7,0.1c-0.2,0.8-2.5,0.2-3.8,0.8c0.6,0.3,2.4-0.6,1.8,0.3
						c0.9-1.1,2.2,0.1,3.8-0.7l-0.1,0.5c0.2-0.1,0.7-0.3,1.2-0.3l-0.8,0.6c1.2-0.5,2.4,0.5,3.6,0.2c-2.5,0-0.6-0.6-1.6-0.9
						c3.1-0.6,1.8,1.2,5.2,1c-0.5,0.1-1.7-0.3-1-0.5c0.6,0.1,1.5,0.3,1.9,0.5c2.3-0.1-0.4-0.5,0.6-0.8c0.8,0.6,1.1-0.2,2.1-0.4
						l0,0.5c2.6,0.3,0.7-1,3-0.6l-1,0.7l1.2-0.2l-0.2,0.5c1.3-0.4,1.7-0.3,3-0.2c-0.3-0.3,0.2-0.9,1.3-0.9c0.8,0.3-0.4,0.5,1.2,0.4
						c-0.4,0.3-0.8,0.7-1.5,0.2c-0.1,0.2-0.4,0.3-0.4,0.5c0.8,0.3,2.1,0.1,2.7,0.1c-0.2,0-0.5,0-0.6-0.1l2.4-0.7
						c0.4,0.2,0.1,0.3-0.2,0.5c0.5,0,0.8-0.3,1.5-0.3c-0.2,0.4-0.1,0.8-1.1,1l2.2-0.4c0.1,0.2,1.1,0.5,0.9,0.6
						c1.2,0.2,3.1-0.8,4.7-0.5c0.1-0.1,0.3-0.2,0.6-0.2c1.5,0.1,2.9,0.6,4.8,0l1,0.7c1.4-0.2-1.4-0.9,1-1.2c1.7-0.2,0.6,0.6,1.2,0.8
						c0.8-0.3,2.3-1.1,3.9-0.5C273.8,539.3,273.4,539.2,272.9,539.3z M290.6,539c-0.3,0.1-1,0.4-1.3,0.1
						C289.8,538.5,290.1,538.8,290.6,539z M317.7,537.8c-0.3,0.2-0.6,0.1-1.1-0.1C316.9,537.7,317.2,537.7,317.7,537.8z
						 M392.9,534.4C392.9,534.4,392.9,534.4,392.9,534.4C392.1,534.3,392.4,534.3,392.9,534.4z M394.5,534.6
						c0.2-0.1,0.1-0.1,0.1-0.2c-0.1,0.1-0.5,0.1-0.9,0.1C393.8,534.7,394,534.8,394.5,534.6z M223.2,534.8l0.3,0.1
						C222.8,535.1,223,535,223.2,534.8z"/>
					<path d="M314.6,538.5c-0.1-0.1-0.1-0.2-0.1-0.3C314.3,538.3,314.3,538.4,314.6,538.5z"/>
					<path d="M261.8,539.5C261.8,539.5,261.8,539.5,261.8,539.5C261.7,539.5,261.7,539.6,261.8,539.5L261.8,539.5z"/>
					<path d="M369.8,538.7c-0.3-0.1-0.5-0.2-0.6-0.2C369.1,538.6,369.3,538.7,369.8,538.7z"/>
					<path d="M403,533.8l-1,0.1c0.5,0,0.7,0.1,0.9,0.2C402.8,534,402.6,533.8,403,533.8z"/>
					<path d="M411.8,536.8c0.1-0.1,0.3,0,0.5-0.1l0-0.2C411.6,536.5,411.2,536.7,411.8,536.8z"/>
					<path d="M403.9,535.4c0.1,0.4,0.7,0.3,1.4,0.2c0,0-0.1,0-0.1,0C405.4,535,404.7,535.2,403.9,535.4z"/>
					<path d="M405.5,535.6c0.2,0,0.5,0,0.7,0C406.3,535.4,405.9,535.5,405.5,535.6z"/>
					<path d="M396.5,534.4c0.3,0.1,0.2-0.5,0.4-0.3C397.3,533.5,394.7,534.6,396.5,534.4z"/>
					<polygon points="404.5,536.8 404.2,536.3 403.8,536.7 					"/>
					<path d="M398.8,536.4l1.1,0.1c0-0.1,0.1-0.1,0.3-0.2C399.6,536.3,398.8,536.2,398.8,536.4z"/>
					<path d="M400.3,536.4c0.4,0,0.7,0,0.9-0.1C401,536.3,400.6,536.3,400.3,536.4z"/>
					<polygon points="402.9,536.9 402.6,536.8 401.8,536.8 					"/>
					<path d="M386.5,536.3l-1.2,0.1c-0.1,0.2,0.2,0.3,0.7,0.2C386.3,536.5,386.7,536.5,386.5,536.3z"/>
					<path d="M390.3,537.7c-0.3-0.1-0.4-0.2-0.5-0.4l0,0.6L390.3,537.7z"/>
					<path d="M386.7,537.8c-0.1,0.2-1.8,0.5-0.2,0.5C386.6,538.1,387.8,538,386.7,537.8z"/>
					<polygon points="367.9,537 368.2,537 368.1,536 					"/>
					<path d="M351.3,539.5c1.5,0.2,0.4-0.6,1.7-0.3c0.4-0.2-1.1-0.2-0.7-0.5C351.4,538.9,350.9,538.8,351.3,539.5z"/>
					<path d="M352.2,538.7c0.1,0,0.3-0.1,0.5-0.2C352.5,538.6,352.3,538.6,352.2,538.7z"/>
					<polygon points="165.1,534.3 164.2,534.1 164.8,534.4 					"/>
					<path d="M163.3,535.1l-0.2-0.7l-0.6,0.6C162.7,535,163.1,534.9,163.3,535.1z"/>
					<path d="M293.3,540.3l0.1-0.2c-0.1-0.2-0.4-0.2-0.8-0.2L293.3,540.3z"/>
					<polygon points="280.4,539.8 280.6,539.8 280.2,539.2 					"/>
					<path d="M269.6,540.5c0.4,0,1-0.1,1.4-0.1C270,540.5,269.4,539.8,269.6,540.5z"/>
				</g>
			</g>
		</g>
	</g>
</g>
<text transform="matrix(0.9998 -1.870000e-02 1.870000e-02 0.9998 217.3659 584.9219)" class="st4 st5">стиль</text>
<text transform="matrix(1.447 0 0 1 269.5439 131.1875)" class="st8 st9 st10">XII</text>
<text transform="matrix(1.4924 0 0 1 256.9702 427.3613)" class="st8 st11 st12">VI</text>
<text transform="matrix(2.3815 0 0 1 121.1606 284.4994)" class="st8 st11 st13">IX</text>
<text transform="matrix(2.0545 0 0 1 397.4303 271.6552)" class="st8 st11 st14">III</text>
</svg>
